<svg width="478" height="480" viewBox="0 0 478 480" fill="none" xmlns="http://www.w3.org/2000/svg">
<path d="M467.005 236.673C463.259 232.68 458.735 229.496 453.713 227.317C448.69 225.138 443.275 224.009 437.8 224H432V207.321C440.116 205.952 447.742 202.518 454.148 197.35C460.553 192.182 465.521 185.453 468.575 177.81C471.629 170.168 472.666 161.868 471.586 153.709C470.506 145.55 467.345 137.806 462.408 131.221C464.142 125.261 464.465 118.979 463.351 112.872C462.237 106.765 459.718 101.002 455.991 96.037C452.265 91.0724 447.435 87.0432 441.882 84.2682C436.33 81.4931 430.207 80.0485 424 80.0485C417.793 80.0485 411.67 81.4931 406.118 84.2682C400.565 87.0432 395.735 91.0724 392.009 96.037C388.282 101.002 385.763 106.765 384.649 112.872C383.535 118.979 383.858 125.261 385.592 131.221C380.655 137.806 377.494 145.55 376.414 153.709C375.334 161.868 376.371 170.168 379.425 177.81C382.479 185.453 387.447 192.182 393.852 197.35C400.258 202.518 407.884 205.952 416 207.321V224H410.2C404.723 224 399.304 225.125 394.28 227.305C389.255 229.485 384.732 232.673 380.99 236.673C377.249 240.672 374.368 245.398 372.527 250.556C370.686 255.715 369.925 261.196 370.289 266.661L372.807 304.428C366.055 302.461 359.025 301.619 352 301.935V24C352 21.8783 351.157 19.8434 349.657 18.3431C348.157 16.8429 346.122 16 344 16H272V8C272 5.87827 271.157 3.84344 269.657 2.34315C268.157 0.842854 266.122 0 264 0H88C85.8783 0 83.8434 0.842854 82.3431 2.34315C80.8429 3.84344 80 5.87827 80 8V16H8C5.87827 16 3.84344 16.8429 2.34315 18.3431C0.842854 19.8434 0 21.8783 0 24V392C0 394.122 0.842854 396.157 2.34315 397.657C3.84344 399.157 5.87827 400 8 400H219.422C226.11 432.42 242.202 458.771 264.103 471.171C271.984 475.781 280.931 478.254 290.061 478.347C297.681 478.317 305.19 476.523 312 473.106C317.729 476.001 323.974 477.734 330.375 478.206C336.777 478.679 343.208 477.881 349.3 475.858C361.937 471.776 373.656 462.714 383.208 449.969C385.439 458.55 390.449 466.15 397.456 471.583C404.462 477.016 413.071 479.976 421.937 480H426.062C436.203 479.977 445.959 476.112 453.365 469.183C460.77 462.255 465.276 452.778 465.974 442.661L477.707 266.661C478.063 261.197 477.297 255.718 475.456 250.561C473.616 245.403 470.74 240.677 467.005 236.673ZM392 160C391.989 151.936 395.039 144.168 400.532 138.264C401.594 137.121 402.299 135.693 402.56 134.154C402.821 132.616 402.626 131.035 402 129.606C400.672 126.578 399.991 123.306 400 120C400 113.635 402.529 107.53 407.029 103.029C411.53 98.5286 417.635 96 424 96C430.365 96 436.47 98.5286 440.971 103.029C445.471 107.53 448 113.635 448 120C448.009 123.306 447.328 126.578 446 129.606C445.373 131.035 445.178 132.615 445.438 134.154C445.698 135.692 446.402 137.121 447.464 138.264C451.23 142.325 453.877 147.294 455.146 152.684C456.415 158.075 456.262 163.703 454.704 169.017C453.145 174.331 450.233 179.149 446.254 183.001C442.274 186.852 437.362 189.604 432 190.987V152C432 149.878 431.157 147.843 429.657 146.343C428.157 144.843 426.122 144 424 144C421.878 144 419.843 144.843 418.343 146.343C416.843 147.843 416 149.878 416 152V190.987C409.135 189.204 403.056 185.196 398.713 179.589C394.37 173.981 392.009 167.092 392 160ZM96 16H256V24C255.993 30.3629 253.462 36.4631 248.962 40.9624C244.463 45.4616 238.363 47.9926 232 48H120C113.637 47.9926 107.537 45.4616 103.038 40.9624C98.5384 36.4631 96.0074 30.3629 96 24V16ZM216 365.75C216 371.846 216.319 377.937 216.955 384H16V32H80.805C82.6609 41.0282 87.5726 49.1405 94.7123 54.9696C101.852 60.7986 110.783 63.988 120 64H232C241.218 63.9891 250.15 60.8003 257.291 54.9712C264.431 49.142 269.344 41.029 271.2 32H336V303.875C330.578 304.98 325.234 306.436 320 308.232V286.78H319.957C319.24 277.06 316.038 267.688 310.657 259.562C295.47 236.782 268.2 232 248 232C246.106 232 244.274 232.672 242.829 233.896C241.384 235.12 240.42 236.817 240.109 238.685C239.339 245.062 239.879 251.529 241.696 257.69C243.513 263.851 246.569 269.577 250.677 274.515C261.594 287.4 279.526 294.526 304 295.779V308.233C288.521 302.943 260.573 296.524 239.946 309.501C224.057 319.5 216 338.423 216 365.75ZM302.525 279.677C284.154 278.372 270.607 273.143 263.044 264.358C259.154 259.812 256.694 254.218 255.974 248.278C275.127 249.666 288.889 256.233 296.945 267.852C299.432 271.466 301.317 275.46 302.525 279.677ZM344.38 460.633C334.701 463.76 325.19 462.584 316.116 457.14C314.873 456.394 313.45 456 312 456C310.55 456 309.127 456.394 307.884 457.14C293.406 465.829 280.371 461.996 271.984 457.248C261.037 451.048 251.121 439.385 244.063 424.403C236.172 407.651 232 387.369 232 365.75C232 344.305 237.531 329.941 248.439 323.061C259.495 316.089 274.869 317.413 285.817 319.753C293.629 321.442 301.244 323.942 308.537 327.212C309.618 327.731 310.801 328 312 328C313.198 328 314.381 327.731 315.462 327.212C325.895 322.203 355.593 312.201 373.994 322.169L380.694 422.692C371.925 442.193 358.769 455.985 344.38 460.633ZM461.742 265.6L450.009 441.6C449.589 447.669 446.885 453.354 442.442 457.511C437.999 461.667 432.146 463.985 426.062 464H421.937C415.853 463.985 410.001 461.667 405.558 457.511C401.115 453.354 398.411 447.669 397.991 441.6L394.151 384H419.8C421.922 384 423.957 383.157 425.457 381.657C426.957 380.157 427.8 378.122 427.8 376C427.8 373.878 426.957 371.843 425.457 370.343C423.957 368.843 421.922 368 419.8 368H393.085L390.951 336H417.31C419.432 336 421.467 335.157 422.967 333.657C424.467 332.157 425.31 330.122 425.31 328C425.31 325.878 424.467 323.843 422.967 322.343C421.467 320.843 419.432 320 417.31 320H389.885L387.751 288H417.31C419.432 288 421.467 287.157 422.967 285.657C424.467 284.157 425.31 282.122 425.31 280C425.31 277.878 424.467 275.843 422.967 274.343C421.467 272.843 419.432 272 417.31 272H386.685L386.258 265.6C386.039 262.321 386.496 259.032 387.599 255.937C388.703 252.842 390.431 250.007 392.676 247.607C394.921 245.207 397.634 243.293 400.648 241.985C403.663 240.676 406.914 240.001 410.2 240H437.8C441.086 240 444.338 240.675 447.353 241.983C450.368 243.292 453.082 245.205 455.327 247.605C457.572 250.005 459.3 252.841 460.404 255.936C461.508 259.032 461.965 262.321 461.746 265.6H461.742Z" />
<path d="M136 112H296C298.122 112 300.157 111.157 301.657 109.657C303.157 108.157 304 106.122 304 104C304 101.878 303.157 99.8434 301.657 98.3431C300.157 96.8429 298.122 96 296 96H136C133.878 96 131.843 96.8429 130.343 98.3431C128.843 99.8434 128 101.878 128 104C128 106.122 128.843 108.157 130.343 109.657C131.843 111.157 133.878 112 136 112Z" />
<path d="M304 200C304 197.878 303.157 195.843 301.657 194.343C300.157 192.843 298.122 192 296 192H136C133.878 192 131.843 192.843 130.343 194.343C128.843 195.843 128 197.878 128 200C128 202.122 128.843 204.157 130.343 205.657C131.843 207.157 133.878 208 136 208H296C298.122 208 300.157 207.157 301.657 205.657C303.157 204.157 304 202.122 304 200Z" />
<path d="M216 224H136C133.878 224 131.843 224.843 130.343 226.343C128.843 227.843 128 229.878 128 232C128 234.122 128.843 236.157 130.343 237.657C131.843 239.157 133.878 240 136 240H216C218.122 240 220.157 239.157 221.657 237.657C223.157 236.157 224 234.122 224 232C224 229.878 223.157 227.843 221.657 226.343C220.157 224.843 218.122 224 216 224Z" />
<path d="M216 288H136C133.878 288 131.843 288.843 130.343 290.343C128.843 291.843 128 293.878 128 296C128 298.122 128.843 300.157 130.343 301.657C131.843 303.157 133.878 304 136 304H216C218.122 304 220.157 303.157 221.657 301.657C223.157 300.157 224 298.122 224 296C224 293.878 223.157 291.843 221.657 290.343C220.157 288.843 218.122 288 216 288Z" />
<path d="M200 320H136C133.878 320 131.843 320.843 130.343 322.343C128.843 323.843 128 325.878 128 328C128 330.122 128.843 332.157 130.343 333.657C131.843 335.157 133.878 336 136 336H200C202.122 336 204.157 335.157 205.657 333.657C207.157 332.157 208 330.122 208 328C208 325.878 207.157 323.843 205.657 322.343C204.157 320.843 202.122 320 200 320Z" />
<path d="M136 144H216C218.122 144 220.157 143.157 221.657 141.657C223.157 140.157 224 138.122 224 136C224 133.878 223.157 131.843 221.657 130.343C220.157 128.843 218.122 128 216 128H136C133.878 128 131.843 128.843 130.343 130.343C128.843 131.843 128 133.878 128 136C128 138.122 128.843 140.157 130.343 141.657C131.843 143.157 133.878 144 136 144Z" />
<path d="M107 81.753L97.5869 89.284C89.9632 82.9343 80.2533 79.6417 70.3399 80.0446C60.4264 80.4475 51.0158 84.5173 43.9326 91.4647C36.8494 98.4122 32.5983 107.742 32.0037 117.646C31.409 127.55 34.5131 137.322 40.7142 145.067C46.9152 152.812 55.7713 157.978 65.5653 159.565C75.3593 161.151 85.3934 159.044 93.7221 153.652C102.051 148.26 108.08 139.967 110.642 130.382C113.204 120.797 112.115 110.602 107.587 101.774L116.997 94.247C118.654 92.9209 119.716 90.991 119.95 88.8818C120.184 86.7725 119.57 84.6568 118.244 83C116.918 81.3432 114.988 80.281 112.879 80.0472C110.769 79.8133 108.654 80.4269 106.997 81.753H107ZM95.9999 120C96.0065 125.325 94.2442 130.501 90.9899 134.716C87.7356 138.931 83.1735 141.945 78.0201 143.286C72.8668 144.626 67.4141 144.217 62.5184 142.123C57.6227 140.029 53.5613 136.367 50.972 131.714C48.3828 127.061 47.4124 121.68 48.2132 116.416C49.014 111.152 51.5407 106.302 55.3965 102.63C59.2522 98.9572 64.2186 96.6693 69.5156 96.1254C74.8127 95.5816 80.1403 96.8125 84.6619 99.625L66.9999 113.753C66.1795 114.41 65.4965 115.221 64.9899 116.142C64.4832 117.063 64.1629 118.074 64.0471 119.118C63.9313 120.163 64.0223 121.22 64.315 122.229C64.6077 123.238 65.0963 124.18 65.7529 125C67.079 126.657 69.0089 127.719 71.1181 127.953C72.1625 128.069 73.2195 127.978 74.2287 127.685C75.2379 127.392 76.1795 126.904 76.9999 126.247L94.6649 112.115C95.5497 114.65 96.001 117.315 95.9999 120Z" />
<path d="M107 177.753L97.5869 185.284C89.9632 178.934 80.2533 175.642 70.3399 176.045C60.4264 176.448 51.0158 180.517 43.9326 187.465C36.8494 194.412 32.5983 203.742 32.0037 213.646C31.409 223.55 34.5131 233.322 40.7142 241.067C46.9152 248.812 55.7713 253.978 65.5653 255.565C75.3593 257.151 85.3934 255.044 93.7221 249.652C102.051 244.26 108.08 235.967 110.642 226.382C113.204 216.797 112.115 206.602 107.587 197.774L116.997 190.247C118.654 188.921 119.716 186.991 119.95 184.882C120.184 182.773 119.57 180.657 118.244 179C116.918 177.343 114.988 176.281 112.879 176.047C110.769 175.813 108.654 176.427 106.997 177.753H107ZM95.9999 216C96.0065 221.325 94.2442 226.501 90.9899 230.716C87.7356 234.931 83.1735 237.945 78.0201 239.286C72.8668 240.626 67.4141 240.217 62.5184 238.123C57.6227 236.029 53.5613 232.367 50.972 227.714C48.3828 223.061 47.4124 217.68 48.2132 212.416C49.014 207.152 51.5407 202.302 55.3965 198.63C59.2522 194.957 64.2186 192.669 69.5156 192.125C74.8127 191.582 80.1403 192.813 84.6619 195.625L66.9999 209.753C66.1795 210.41 65.4965 211.221 64.9899 212.142C64.4832 213.063 64.1629 214.074 64.0471 215.118C63.9313 216.163 64.0223 217.22 64.315 218.229C64.6077 219.238 65.0963 220.18 65.7529 221C66.4095 221.82 67.2213 222.503 68.1418 223.01C69.0624 223.517 70.0738 223.837 71.1181 223.953C72.1625 224.069 73.2195 223.978 74.2287 223.685C75.2379 223.392 76.1795 222.904 76.9999 222.247L94.6649 208.115C95.5497 210.65 96.001 213.315 95.9999 216Z" />
<path d="M107 273.753L97.5869 281.284C89.9632 274.934 80.2533 271.642 70.3399 272.045C60.4264 272.448 51.0158 276.517 43.9326 283.465C36.8494 290.412 32.5983 299.742 32.0037 309.646C31.409 319.55 34.5131 329.322 40.7142 337.067C46.9152 344.812 55.7713 349.978 65.5653 351.565C75.3593 353.151 85.3934 351.044 93.7221 345.652C102.051 340.26 108.08 331.967 110.642 322.382C113.204 312.797 112.115 302.602 107.587 293.774L116.997 286.247C118.654 284.921 119.716 282.991 119.95 280.882C120.184 278.773 119.57 276.657 118.244 275C116.918 273.343 114.988 272.281 112.879 272.047C110.769 271.813 108.654 272.427 106.997 273.753H107ZM95.9999 312C96.0065 317.325 94.2442 322.501 90.9899 326.716C87.7356 330.931 83.1735 333.945 78.0201 335.286C72.8668 336.626 67.4141 336.217 62.5184 334.123C57.6227 332.029 53.5613 328.367 50.972 323.714C48.3828 319.061 47.4124 313.68 48.2132 308.416C49.014 303.152 51.5407 298.302 55.3965 294.63C59.2522 290.957 64.2186 288.669 69.5156 288.125C74.8127 287.582 80.1403 288.813 84.6619 291.625L66.9999 305.753C65.3431 307.079 64.2809 309.009 64.0471 311.118C63.8132 313.227 64.4268 315.343 65.7529 317C67.079 318.657 69.0089 319.719 71.1181 319.953C73.2274 320.187 75.3431 319.573 76.9999 318.247L94.6649 304.115C95.5497 306.65 96.001 309.315 95.9999 312Z" />
</svg>
