<svg width="124" height="125" viewBox="0 0 124 125" xmlns="http://www.w3.org/2000/svg">
<path d="M106.778 20.4119C101.611 20.4119 87.8333 27.7071 87.8333 23.8563C87.8333 22.1341 94.7222 22.1341 98.1667 18.6896C101.611 15.2452 103.333 8.3563 101.611 3.18963C98.4326 -6.34046 94.7222 8.3563 89.5556 10.0785C87.2435 10.8486 80.9444 13.523 75.7778 11.8007C69.885 9.83592 65.4444 8.3563 62 8.3563C58.5556 8.3563 54.1123 9.83592 48.2222 11.8007C43.0556 13.523 36.7565 10.8486 34.4444 10.0785C29.2778 8.3563 25.5647 -6.34 22.3889 3.18963C20.6667 8.3563 22.3889 15.2452 25.8333 18.6896C29.2778 22.1341 36.1667 22.1341 36.1667 23.8563C36.1667 27.7071 22.3889 20.4119 17.2222 20.4119C8.61111 20.4119 0 25.5785 0 30.7452C0 34.1896 5.16667 39.3563 15.5 39.3563C25.975 39.3563 29.2778 30.7452 31 35.9119C31 35.9119 29.1056 51.2396 37.8889 60.023C43.0556 65.1896 41.3333 72.0785 39.6111 75.523C37.8889 78.9674 35.5343 92.7016 44.7778 99.6341C51.6667 104.801 57.7587 106.523 62 106.523C66.2378 106.523 72.3333 104.801 79.2222 99.6341C88.463 92.7012 86.1111 78.9674 84.3889 75.523C82.6667 72.0785 80.9444 65.1896 86.1111 60.023C94.8904 51.2396 93 35.9119 93 35.9119C94.7222 30.7452 98.0218 39.3563 108.5 39.3563C118.833 39.3563 124 34.1896 124 30.7452C124 25.5785 115.389 20.4119 106.778 20.4119ZM44.7778 53.3901C42.8753 53.3901 41.3333 51.8455 41.3333 49.9457C41.3333 48.0414 42.8753 46.5012 44.7778 46.5012C46.6803 46.5012 48.2222 48.0414 48.2222 49.9457C48.2222 51.8455 46.6803 53.3901 44.7778 53.3901ZM75.7778 87.5785C74.0556 94.4674 67.1667 97.9119 62 97.9119C56.8333 97.9119 49.9444 94.4674 48.2222 87.5785C46.9682 82.5662 49.9444 78.9674 53.3889 75.523C56.8333 72.0785 56.8333 61.7452 56.8333 60.023C56.8333 58.3008 56.8333 49.6896 53.3889 44.523C49.9444 39.3563 44.7778 39.3563 44.7778 29.023C44.7778 18.6896 62 16.9674 62 16.9674C62 16.9674 79.2222 18.6896 79.2222 29.023C79.2222 39.3563 74.0556 39.3563 70.6111 44.523C67.1667 49.6896 67.1667 58.3008 67.1667 60.023C67.1667 61.7452 67.1667 72.0785 70.6111 75.523C74.0556 78.9674 77.0287 82.5674 75.7778 87.5785ZM79.2222 53.3901C77.3197 53.3901 75.7778 51.8455 75.7778 49.9457C75.7778 48.0414 77.3197 46.5012 79.2222 46.5012C81.1247 46.5012 82.6667 48.0414 82.6667 49.9457C82.6667 51.8455 81.1247 53.3901 79.2222 53.3901Z" />
<path d="M22.6173 124.001C26.0618 118.835 24.3396 115.148 22.6173 111.703C20.713 107.893 31.2284 113.668 32.9507 118.835C32.9507 118.835 36.3951 118.592 34.6729 108.259C34.2719 105.858 43.284 117.113 43.284 117.113C43.284 117.113 48.4507 110.991 48.4507 113.426C48.4507 118.592 51.8951 118.835 51.8951 118.835C51.8951 118.835 62.2284 107.547 62.2284 109.981C62.2284 115.148 63.9507 115.391 67.3951 118.835C67.3951 118.835 72.5618 120.315 72.5618 109.981C72.5618 109.981 76.0062 106.779 81.1729 115.391C81.1729 115.391 86.3396 111.703 89.784 109.981V117.113C89.784 117.113 93.2284 115.148 98.3951 113.426C98.3951 113.426 98.3951 122.279 101.84 124.002"/>
<path d="M54.1765 85.5256C52.9822 85.5256 52.0107 86.4957 52.0107 87.6901C52.0107 88.8858 52.9822 89.8559 54.1765 89.8559C58.5027 89.8559 56.9774 93.46 58.5027 93.46C59.9496 93.4605 59.9496 85.5256 54.1765 85.5256Z"/>
<path d="M70.1266 85.5256C71.3223 85.5256 72.2924 86.4957 72.2924 87.6901C72.2924 88.8858 71.3223 89.8559 70.1266 89.8559C65.8004 89.8559 67.3311 93.46 65.8004 93.46C64.3576 93.4605 64.3576 85.5256 70.1266 85.5256Z"/>
</svg>
