<svg width="71" height="62" viewBox="0 0 71 62" xmlns="http://www.w3.org/2000/svg">
<path d="M65.8225 5.30594C62.4843 1.88405 58.0447 0 53.3225 0C48.6026 0 44.1631 1.88486 40.8256 5.30594L35.4996 10.7633L30.1744 5.30594C26.8361 1.88405 22.3982 0 17.6759 0C12.9553 0 8.51492 1.88486 5.17747 5.30594C1.83923 8.72865 0 13.2759 0 18.1153C0 19.1056 0.0790636 20.0853 0.230003 21.0453H4.55055C5.02414 21.0453 5.81877 20.5936 6.06794 20.1827L6.12065 20.0968L7.88481 17.8019C8.83197 16.3311 10.0411 16.3213 10.5259 16.3892C11.0194 16.4572 12.2237 16.8066 12.7404 18.5769L16.0699 29.9868L24.0058 11.576C24.7693 9.80653 26.0191 9.68868 26.5207 9.72141C27.0238 9.75251 28.2497 10.0283 28.7928 11.8805L37.7557 42.4974L45.8729 24.0114C46.6156 22.3196 48.5395 21.0445 50.3492 21.0445H61.6154C62.62 21.0445 63.4338 21.8785 63.4338 22.9073C63.4338 23.9361 62.6192 24.7692 61.6154 24.7692H50.3492C49.9643 24.7692 49.3445 25.1801 49.1872 25.5386L39.8904 46.7107C39.1821 48.328 38.0688 48.5531 37.5033 48.5531C37.4538 48.5531 37.4059 48.5514 37.3652 48.549C36.8636 48.5154 35.6386 48.2363 35.0979 46.3875L26.1501 15.8229L18.2126 34.2402C17.4507 36.0105 16.1993 36.1275 15.6969 36.0948C15.1962 36.062 13.9687 35.787 13.4281 33.9333L9.76317 21.3793L9.08993 22.2558C8.15634 23.6963 6.22687 24.7709 4.54976 24.7709H1.22589C2.10357 27.0486 3.43648 29.1397 5.17668 30.9247L35.4996 62L65.8225 30.9239C69.1616 27.5012 71 22.9539 71 18.1153C71 13.2759 69.1608 8.72865 65.8225 5.30594Z"/>
</svg>
