<svg width="64" height="101" viewBox="0 0 64 101" xmlns="http://www.w3.org/2000/svg">
<path fill-rule="evenodd" clip-rule="evenodd" d="M10.8936 1.36486C10.8936 0.61105 11.5033 0 12.2553 0H57.1915C57.9436 0 58.5532 0.61105 58.5532 1.36486V10.5564L63.8205 19.7959C63.9382 20.0021 64 20.2355 64 20.473V79.1622C64 79.4316 63.9205 79.695 63.7714 79.9193L50.1543 100.392C49.9018 100.772 49.4766 101 49.0213 101H1.3617C0.609634 101 0 100.389 0 99.6351V27.9797C0 27.7189 0.0744845 27.4637 0.21474 27.2439L10.8936 10.5196V1.36486ZM13.0006 12.2838L3.84994 26.6149H48.1645L55.0275 12.2838H13.0006ZM57.2963 13.8539L54.7802 19.1081H60.2918L57.2963 13.8539ZM57.3369 21.8378H53.473L52.087 24.7319L57.3369 21.8378ZM50.383 28.7868V95.1273L61.2766 78.7489V22.7814L50.383 28.7868ZM47.6596 98.2703V29.3446H2.7234V98.2703H47.6596ZM55.8298 9.55405H13.617V2.72973H55.8298V9.55405ZM31.6424 45.2584C32.1559 44.9264 32.8272 44.978 33.2842 45.3848C34.226 46.2227 34.8752 47.1136 35.2263 48.0645C35.582 49.0279 35.6003 49.9691 35.4064 50.8433C35.285 51.3904 35.0798 51.9107 34.8272 52.3988C35.5365 52.4332 36.2533 52.5412 36.9352 52.7045C38.7618 53.1421 40.6984 54.0623 41.9005 55.5196C42.143 55.8136 42.2517 56.196 42.2002 56.5741C42.1486 56.9521 41.9416 57.2913 41.6293 57.5093C39.8811 58.7295 38.2749 59.2916 36.8044 59.3128C36.3554 59.3192 35.9325 59.275 35.5358 59.1908C35.519 59.3499 35.497 59.5091 35.4696 59.6679L33.9261 68.5978C34.8413 69.9971 34.9959 71.8454 34.1996 73.4763C33.0979 75.7327 30.5795 76.7697 28.2521 76.3342C27.2399 76.1447 26.202 76.0048 25.3827 76.0048C24.5632 76.0048 23.5253 76.1447 22.5133 76.3342C20.1859 76.7697 17.6673 75.7327 16.5657 73.4763C15.7695 71.8454 15.924 69.9971 16.8391 68.5978L15.2957 59.6679C15.2629 59.4782 15.2379 59.2881 15.2203 59.0981C14.8823 59.1947 14.5224 59.2626 14.1403 59.294C12.5279 59.4262 10.7321 58.8901 8.7537 57.5093C8.44133 57.2913 8.23435 56.9521 8.18274 56.5741C8.13127 56.196 8.23993 55.8136 8.48245 55.5196C9.72078 54.0183 11.7567 53.0879 13.6504 52.6658C14.1933 52.5448 14.7604 52.4578 15.3288 52.4152C15.1299 52.0091 14.9658 51.5821 14.856 51.1364C14.6373 50.2487 14.6315 49.2834 14.979 48.2906C15.3226 47.3091 15.9801 46.3896 16.9479 45.5283C17.4049 45.1217 18.0762 45.07 18.5898 45.402C19.1035 45.7339 19.3334 46.3681 19.1526 46.9533C18.9091 47.7401 19.1767 48.477 20.0041 49.3259C20.7109 50.0512 21.6355 50.6541 22.4882 51.1909C23.47 50.9428 24.4626 50.7801 25.3827 50.7801C26.1351 50.7801 26.9362 50.889 27.7401 51.0642C28.5959 50.525 29.5263 49.9175 30.2344 49.1867C31.0565 48.3387 31.3241 47.5998 31.0796 46.8095C30.8987 46.2244 31.1288 45.5903 31.6424 45.2584ZM27.6308 53.8426C27.64 53.845 27.6491 53.8473 27.6582 53.8495C28.6043 54.0925 29.6053 54.4445 30.5626 54.8348C30.7969 54.9303 31.0132 55.0465 31.2113 55.18C31.249 55.2054 31.2861 55.2314 31.3226 55.2581C32.0078 55.7596 32.4924 56.4997 32.7156 57.3595C32.866 57.9396 32.8955 58.5692 32.7861 59.202L31.4877 66.7145C31.3462 66.6667 31.2012 66.6251 31.0525 66.5898C29.2897 66.1715 27.1705 65.7768 25.3827 65.7768C23.5948 65.7768 21.4755 66.1715 19.7128 66.5898C19.5641 66.6251 19.419 66.6667 19.2776 66.7145L17.9791 59.202C17.8477 58.4415 17.9169 57.6867 18.1548 57.0167C18.3824 56.3757 18.7622 55.8174 19.2658 55.3966L19.2689 55.394C19.2693 55.3936 19.2697 55.3933 19.2701 55.393M19.3369 55.3387C19.351 55.3282 19.365 55.3173 19.3788 55.3061C19.6234 55.1183 19.898 54.9589 20.2026 54.8348C21.9914 54.1056 23.933 53.5098 25.3827 53.5098C26.049 53.5098 26.8193 53.6358 27.6308 53.8426M18.6511 52.5488C18.8209 52.4608 18.9962 52.3797 19.1766 52.3061C19.1995 52.2968 19.2223 52.2876 19.2452 52.2783C18.8326 51.9607 18.4244 51.6115 18.0559 51.2333C17.8828 51.0558 17.7126 50.8654 17.5506 50.663C17.743 51.2802 18.1399 51.9076 18.6511 52.5488ZM16.0316 55.1153C15.9139 55.329 15.8083 55.549 15.715 55.7741C15.2163 56.2096 14.6271 56.5152 13.9182 56.5734C13.4087 56.6151 12.7529 56.5361 11.9319 56.1888C12.5938 55.8191 13.3889 55.5205 14.2415 55.3305C14.886 55.1868 15.4932 55.1205 16.0316 55.1153ZM31.0557 52.0942C31.4488 51.7872 31.8365 51.4514 32.1878 51.0889C32.3509 50.9206 32.5113 50.741 32.6646 50.5506C32.475 51.1218 32.1085 51.7091 31.6315 52.3239C31.6174 52.3179 31.6031 52.312 31.5886 52.3061C31.4154 52.2356 31.2376 52.1646 31.0557 52.0942ZM34.7402 55.1273C34.9217 55.4586 35.0743 55.8048 35.1973 56.1616C35.642 56.4279 36.1559 56.5921 36.7653 56.5833C37.2231 56.5766 37.7838 56.4717 38.4569 56.1862C37.8348 55.8357 37.0959 55.5496 36.3022 55.3595C35.7534 55.228 35.2253 55.1535 34.7402 55.1273ZM25.3827 68.5065C23.9207 68.5065 22.0514 68.84 20.3402 69.2461C19.8999 69.3506 19.5525 69.5721 19.2974 69.8584C18.7598 70.4617 18.5879 71.4081 19.0119 72.2764C19.5096 73.2958 20.7348 73.8901 22.0133 73.6507C23.0802 73.451 24.3118 73.2751 25.3827 73.2751C26.4534 73.2751 27.685 73.451 28.7519 73.6507C30.0306 73.8901 31.2557 73.2958 31.7534 72.2764C32.1773 71.4081 32.0056 70.4617 31.468 69.8584C31.2128 69.5721 30.8653 69.3506 30.4251 69.2461C28.7138 68.84 26.8446 68.5065 25.3827 68.5065ZM22.2216 72.5236C22.4479 72.6917 22.7282 72.7912 23.0316 72.7912C23.7836 72.7912 24.3933 72.1802 24.3933 71.4264C24.3933 70.8605 24.2214 70.2967 23.8795 69.8445C23.537 69.3915 22.9637 68.9904 22.2216 68.9904C21.4794 68.9904 20.9062 69.3915 20.5636 69.8445C20.2217 70.2967 20.0498 70.8605 20.0498 71.4264C20.0498 72.1802 20.6596 72.7912 21.4115 72.7912C21.7149 72.7912 21.9952 72.6917 22.2216 72.5236ZM22.7741 71.417C22.7741 71.4171 22.7739 71.4182 22.7735 71.4204L22.7741 71.417ZM28.1614 72.5236C28.3878 72.6917 28.6681 72.7912 28.9714 72.7912C29.7234 72.7912 30.3331 72.1802 30.3331 71.4264C30.3331 70.8605 30.1613 70.2967 29.8194 69.8445C29.4768 69.3915 28.9036 68.9904 28.1614 68.9904C27.4192 68.9904 26.846 69.3915 26.5035 69.8445C26.1616 70.2967 25.9897 70.8605 25.9897 71.4264C25.9897 72.1802 26.5994 72.7912 27.3514 72.7912C27.6548 72.7912 27.935 72.6917 28.1614 72.5236ZM28.7138 71.417C28.7139 71.4168 28.7138 71.4181 28.7134 71.4204L28.7138 71.417ZM27.6089 71.417C27.6089 71.4167 27.6093 71.4178 27.6095 71.4204L27.6089 71.417Z" />
</svg>
