<svg width="72" height="83" viewBox="0 0 72 83" xmlns="http://www.w3.org/2000/svg">
<path d="M36.167 0H35.834C31.514 0 28 3.514 28 7.833V9.266C17.566 12.65 10 22.458 10 34.005V56.04C10 57.121 9.121 58 8.04 58H8H7.94C3.562 58 0 61.562 0 65.94V66.06C0 70.438 3.562 74 7.94 74H26.687C27.096 78.868 31.182 83 36.154 83H36.306C41.278 83 45.364 78.868 45.773 74H65.06C69.211 74 72 70.809 72 66.06V65.94C72 61.191 69.211 58 65.06 58H65H64.96C63.879 58 63 57.121 63 56.04V34.255C63 22.295 54.958 12.184 44 9.027V7.833C44 3.514 40.486 0 36.167 0ZM32 7.833C32 5.72 33.72 4 35.833 4H36.166C38.28 4 40 5.72 40 7.833V8.209C38.933 8.076 37.848 8 36.745 8H36.005C34.643 8 33.306 8.106 32 8.309V7.833ZM36.305 79H36.153C33.388 79 31.093 76.658 30.704 74H41.754C41.365 76.658 39.07 79 36.305 79ZM65 62H65.06C67.713 62 68 64.755 68 65.94V66.06C68 67.245 67.713 70 65.06 70H43.812H28.646H7.94C5.768 70 4 68.232 4 66.06V65.94C4 63.768 5.768 62 7.94 62H8H8.04H64.96H65ZM59 34.255V56.04C59 56.728 59.123 57.385 59.338 58H13.662C13.877 57.385 14 56.728 14 56.04V34.005C14 21.871 23.872 12 36.005 12H36.745C49.017 12 59 21.983 59 34.255Z" />
</svg>
