<svg width="119" height="130" viewBox="0 0 119 130" xmlns="http://www.w3.org/2000/svg">
<path d="M28 38.5C28 41.4439 28.8093 44.2051 30.207 46.6009C30.2292 46.6415 30.241 46.6847 30.2645 46.7253C30.2919 46.7709 30.3325 46.8039 30.3625 46.8483C33.3213 51.716 38.7668 55 45.0007 55C54.3737 54.9987 62 47.597 62 38.5C62 29.4017 54.3737 22 45.0007 22C35.6263 22 28 29.4017 28 38.5ZM42.3858 27.3689V37.0306L33.7488 41.8513C33.4128 40.7904 33.2298 39.6649 33.2298 38.4987C33.2298 33.0728 37.1508 28.5274 42.3858 27.3689ZM56.7702 38.5C56.7702 44.799 51.4895 49.923 45.0007 49.923C41.5908 49.923 38.5236 48.4992 36.3715 46.2431L46.3042 40.6991C46.3316 40.6838 46.3512 40.6635 46.3774 40.6483C46.4558 40.6001 46.5291 40.5468 46.601 40.4922C46.6663 40.4427 46.7317 40.3945 46.7918 40.34C46.852 40.2854 46.9056 40.2245 46.9605 40.1636C47.018 40.1001 47.0756 40.038 47.1252 39.9707C47.1736 39.9047 47.2128 39.8362 47.2547 39.7664C47.2965 39.6953 47.3397 39.6255 47.3737 39.5519C47.409 39.4771 47.4351 39.3984 47.4639 39.3197C47.4913 39.2423 47.5188 39.1662 47.5384 39.0875C47.5567 39.0114 47.5672 38.9327 47.5789 38.854C47.592 38.7639 47.6038 38.6751 47.6064 38.585C47.6077 38.5558 47.6155 38.5292 47.6155 38.5V27.3701C52.8492 28.5274 56.7702 33.074 56.7702 38.5Z" />
<path d="M67.6223 55H75.3777C76.8252 55 78 53.8341 78 52.3975V34.6025C78 33.1659 76.8252 32 75.3777 32H67.6223C66.1748 32 65 33.1659 65 34.6025V52.3975C65 53.8354 66.1748 55 67.6223 55ZM70.2446 37.2051H72.7554V49.7949H70.2446V37.2051Z" />
<path d="M81.6223 55H89.3777C90.8252 55 92 53.8338 92 52.3969V25.6031C92 24.1662 90.8252 23 89.3777 23H81.6223C80.1748 23 79 24.1662 79 25.6031V52.3969C79 53.8338 80.1748 55 81.6223 55ZM84.2445 28.2062H86.7555V49.7938H84.2445V28.2062Z" />
<path d="M75.4141 63H45.5859C44.1585 63 43 64.1213 43 65.5029V73.4971C43 74.8787 44.1585 76 45.5859 76H75.4141C76.8415 76 78 74.8787 78 73.4971V65.5029C78 64.12 76.8415 63 75.4141 63ZM72.8282 70.9942H48.1718V68.0045H72.8282V70.9942Z" />
<path d="M86.4166 84H34.5847C33.1579 84 32 85.12 32 86.5C32 87.88 33.1579 89 34.5847 89H86.4153C87.8421 89 89 87.88 89 86.5C89 85.12 87.8434 84 86.4166 84Z" />
<path d="M77.4283 94H42.573C41.1527 94 40 95.12 40 96.5C40 97.88 41.1527 99 42.573 99H77.427C78.8473 99 80 97.88 80 96.5C80 95.12 78.8486 94 77.4283 94Z" />
<path d="M68.4609 103H52.5391C51.1375 103 50 104.344 50 106C50 107.656 51.1375 109 52.5391 109H68.4609C69.8625 109 71 107.656 71 106C71 104.344 69.8637 103 68.4609 103Z" />
<path d="M118.423 89.4372L101.194 56.4404V16.0882C101.194 13.2984 98.9213 11.0273 96.1284 11.0273H77.4779L73.1369 2.71635C71.8465 0.245032 68.7778 -0.715673 66.3048 0.571334L46.2546 11.0273H24.4105C21.6189 11.0273 19.3463 13.2984 19.3463 16.0882V25.0609L2.7239 33.7293C1.5245 34.3546 0.639914 35.4089 0.235346 36.6998C-0.170523 37.9894 -0.0482421 39.3596 0.577473 40.5583L19.3463 76.4995V113.906C19.3463 116.696 21.6189 118.967 24.4105 118.967H41.5234L45.8618 127.279C46.4875 128.478 47.5438 129.36 48.8342 129.765C49.3351 129.922 49.8476 130 50.3575 130C51.1628 130 51.9615 129.806 52.6952 129.424L72.7441 118.968H96.1297C98.9213 118.968 101.195 116.698 101.195 113.907V104.131L116.28 96.2648C117.478 95.6395 118.361 94.5839 118.766 93.2943C119.171 92.0047 119.047 90.6332 118.423 89.4372ZM68.5878 5.24616L71.6071 11.0273H57.5019L68.5878 5.24616ZM5.25538 38.2754L19.3463 30.9265V65.2597L5.25538 38.2754ZM50.4096 124.748L47.3903 118.967H61.4955L50.4096 124.748ZM95.9905 113.767H24.5497V16.2273H95.9905V113.767ZM101.194 98.2655V67.6829L113.745 91.7187L101.194 98.2655Z" />
</svg>
